# xmcd
#
# Track frame offsets: 
#        150
#        41317
#        70913
#        96337
#        116815
#        153362
#
# Disc length: 2545 seconds
#
# Revision: 0
# Processed by: cddbd v1.5.2PL0 Copyright (c) Steve Scherf et al.
# Submitted via: ExactAudioCopy v1.3
#
DISCID=4909ef06
DTITLE=Buddy Guy - The Blues Giant
DYEAR=1979
DGENRE=Chicago Blues
TTITLE0=I Smell A Rat
TTITLE1=are You Losing Your Mind
TTITLE2=You've Been Gone Too Long
TTITLE3=She Is Out There
TTITLE4=Outskirts Of Town
TTITLE5=When I Left Home
EXTD=
EXTT0=
EXTT1=
EXTT2=
EXTT3=
EXTT4=
EXTT5=
PLAYORDER=
